<?xml version="1.0" encoding="utf-8"?>
<!-- Generator: Adobe Illustrator 24.1.2, SVG Export Plug-In . SVG Version: 6.00 Build 0)  -->
<svg version="1.1" id="Layer_1" xmlns="http://www.w3.org/2000/svg" xmlns:xlink="http://www.w3.org/1999/xlink" x="0px" y="0px"
	 viewBox="0 0 1251.1 165" style="enable-background:new 0 0 1251.1 165;" xml:space="preserve">
<style type="text/css">
	.st0{fill:#FFFFFF;}
</style>
<g>
	<path class="st0" d="M126.2,124.6H46.3l-15.7,37H0L71.9,1.8h29.2l72.1,159.8h-31L126.2,124.6z M116.4,101.3L86.3,31.5l-29.9,69.8
		H116.4z"/>
	<path class="st0" d="M341.2,1.8v159.8h-24.4L228.7,53.4v108.2h-29.4V1.8h24.4L311.7,110V1.8H341.2z"/>
	<path class="st0" d="M389.8,1.8h69.8c17,0,32.2,3.3,45.4,9.9s23.5,16,30.8,28.1c7.3,12.1,11,26.1,11,41.9c0,15.8-3.7,29.8-11,41.9
		c-7.3,12.1-17.6,21.5-30.8,28.1c-13.2,6.6-28.4,9.9-45.4,9.9h-69.8V1.8z M458.3,136.5c11.7,0,22-2.2,30.9-6.7
		c8.9-4.5,15.7-10.9,20.5-19.2c4.8-8.3,7.2-17.9,7.2-28.9s-2.4-20.6-7.2-28.9c-4.8-8.3-11.6-14.7-20.5-19.2
		c-8.9-4.5-19.2-6.7-30.9-6.7h-38.8v109.5H458.3z"/>
	<path class="st0" d="M688.5,161.6l-32.6-46.8c-1.4,0.2-3.4,0.2-6.2,0.2h-36.1v46.6H584V1.8h65.7c13.8,0,25.9,2.3,36.2,6.8
		s18.1,11.1,23.6,19.6c5.5,8.5,8.2,18.6,8.2,30.4c0,12-2.9,22.4-8.8,31c-5.9,8.7-14.3,15.1-25.2,19.4l36.7,52.5H688.5z M677.8,35.1
		c-6.7-5.5-16.5-8.2-29.4-8.2h-34.7v63.7h34.7c12.9,0,22.7-2.8,29.4-8.3c6.7-5.6,10-13.4,10-23.6C687.9,48.5,684.5,40.6,677.8,35.1z
		"/>
	<path class="st0" d="M876.4,136.7v24.9H756.5V1.8h116.6v24.9h-87v41.5h77.1v24.4h-77.1v44H876.4z"/>
	<path class="st0" d="M915.2,1.8h29.7v159.8h-29.7V1.8z"/>
	<path class="st0" d="M1208.4,1.8l-69.6,159.8h-29.2L1039.8,1.8h32.2l53.2,123.2l53.6-123.2H1208.4z"/>
	<path class="st0" d="M1219.1,157.8c-3.7-3.6-5.5-8.1-5.5-13.6c0-5.6,1.8-10.2,5.4-13.7c3.6-3.5,8-5.2,13.4-5.2
		c5.3,0,9.8,1.8,13.3,5.2c3.6,3.5,5.4,8.1,5.4,13.7c0,5.5-1.8,10-5.5,13.6c-3.7,3.6-8.1,5.4-13.2,5.4
		C1227.2,163.2,1222.8,161.4,1219.1,157.8z"/>
</g>
</svg>
